<svg id="Layer_1" enable-background="new 0 0 256 256" height="512" viewBox="0 0 256 256" width="512" xmlns="http://www.w3.org/2000/svg"><g><g><path d="m34.336 8c-4.418 0-8 3.582-8 8v9.496 136.474c0 16.256 6.033 31.934 16.929 43.997 6.281 6.954 13.979 12.482 22.575 16.212l57.048 24.76c3.262 1.416 6.964 1.416 10.225 0l57.048-24.76c8.596-3.731 16.293-9.259 22.575-16.212 10.897-12.063 16.929-27.741 16.929-43.997v-136.474-9.496c0-4.418-3.582-8-8-8z" fill="#4671c6"/></g><g><path d="m129.594 234.467c-1.016.441-2.169.441-3.185 0l-55.457-24.068c-7.136-3.098-13.378-7.631-18.541-13.47-8.686-9.821-13.233-22.628-13.233-35.739v-136.348c0-2.209 1.791-4 4-4h169.645c2.209 0 4 1.791 4 4v136.35c0 13.116-4.551 25.928-13.244 35.75-5.162 5.832-11.399 10.362-18.532 13.458z" fill="#a4c9ff"/></g><g><path d="m128 249.995c-2.016 0-4.031-.407-5.909-1.223l-57.048-24.759c-8.919-3.871-16.745-9.492-23.262-16.706-11.25-12.454-17.445-28.555-17.445-45.338v-145.969c0-5.514 4.486-10 10-10h187.329c5.514 0 10 4.486 10 10v145.969c0 16.783-6.196 32.884-17.445 45.338-6.517 7.214-14.343 12.835-23.262 16.706l-57.048 24.759c-1.878.816-3.894 1.223-5.91 1.223zm-93.665-239.995c-3.309 0-6 2.691-6 6v145.969c0 15.79 5.829 30.939 16.414 42.656 6.132 6.788 13.495 12.076 21.887 15.719l57.048 24.759c2.744 1.191 5.89 1.19 8.633 0l57.048-24.759c8.392-3.643 15.755-8.931 21.886-15.719 10.585-11.717 16.414-26.866 16.414-42.656v-145.969c0-3.309-2.691-6-6-6z" fill="#3762cc"/></g><g><path d="m128.001 236.795c-.815 0-1.63-.165-2.389-.494l-55.457-24.068c-7.409-3.216-13.883-7.919-19.243-13.979-8.857-10.014-13.735-23.177-13.735-37.065v-136.347c0-3.309 2.691-6 6-6h169.646c3.309 0 6 2.691 6 6v136.35c0 13.893-4.882 27.06-13.746 37.076-5.358 6.054-11.829 10.753-19.233 13.966l-55.454 24.068c-.759.329-1.574.493-2.389.493zm1.593-2.328h.01zm-86.417-211.625c-1.103 0-2 .897-2 2v136.348c0 12.911 4.521 25.132 12.731 34.415 4.969 5.618 10.972 9.979 17.84 12.96l55.457 24.068c.506.22 1.087.219 1.592 0l55.454-24.068c6.863-2.979 12.862-7.335 17.831-12.949 8.216-9.284 12.741-21.509 12.741-34.424v-136.35c0-1.103-.897-2-2-2z" fill="#3762cc"/></g><g><circle cx="128" cy="83.793" fill="#e0ebfc" r="54.394"/></g><g><path d="m73.606 83.843 15.482-11.248-6.226-19.163c-5.844 8.671-9.256 19.118-9.256 30.361z" fill="#4671c6"/></g><g><path d="m110.201 32.381 17.799 12.932 17.799-12.932c-5.577-1.931-11.565-2.982-17.799-2.982s-12.222 1.052-17.799 2.982z" fill="#4671c6"/></g><g><path d="m104.423 117.825-19.39-.677c6.213 7.991 14.604 14.205 24.284 17.745z" fill="#4671c6"/></g><g><path d="m146.686 134.893c9.679-3.541 18.069-9.754 24.281-17.745l-19.387.677z" fill="#4671c6"/></g><g><path d="m166.803 72.594 15.59 11.327c.001 0 .001 0 .002-.001.026-11.339-3.418-21.872-9.33-30.598z" fill="#4671c6"/></g><g><path d="m128 62.538-21.555 15.66 8.233 25.34h26.644l8.233-25.34z" fill="#4671c6"/></g><g><path d="m141.322 105.538h-26.644c-.866 0-1.634-.558-1.902-1.382l-8.233-25.339c-.268-.824.026-1.727.727-2.236l21.555-15.661c.701-.509 1.65-.509 2.352 0l21.555 15.661c.701.509.994 1.412.727 2.236l-8.233 25.339c-.27.823-1.038 1.382-1.904 1.382zm-25.191-4h23.737l7.335-22.575-19.203-13.953-19.204 13.953z" fill="#3762cc"/></g><g><path d="m128 140.188c-31.096 0-56.395-25.298-56.395-56.395 0-31.096 25.298-56.394 56.395-56.394s56.395 25.298 56.395 56.394-25.299 56.395-56.395 56.395zm0-108.789c-28.891 0-52.395 23.504-52.395 52.394 0 28.891 23.504 52.395 52.395 52.395s52.395-23.504 52.395-52.395c0-28.89-23.504-52.394-52.395-52.394z" fill="#3762cc"/></g><g><path d="m182.103 85.711c-.408 0-.819-.124-1.174-.382l-15.302-11.117c-.701-.509-.994-1.412-.727-2.236l6.09-18.743c.342-1.05 1.471-1.622 2.521-1.284 1.05.341 1.625 1.47 1.284 2.521l-5.641 17.361 14.125 10.263c.894.649 1.092 1.9.443 2.793-.391.539-1.001.824-1.619.824z" fill="#3762cc"/></g><g><path d="m149.555 80.199c-.843 0-1.627-.537-1.902-1.382-.341-1.051.234-2.179 1.284-2.521l17.248-5.604c1.052-.337 2.179.233 2.521 1.284s-.234 2.179-1.284 2.521l-17.248 5.604c-.206.066-.414.098-.619.098z" fill="#3762cc"/></g><g><path d="m146.777 136.581c-.183 0-.368-.025-.552-.078-1.062-.304-1.676-1.412-1.371-2.474l4.805-16.756c.239-.833.987-1.417 1.853-1.448l18.92-.661c1.098-.02 2.03.825 2.069 1.929.038 1.104-.825 2.03-1.929 2.068l-17.468.61-4.404 15.359c-.253.879-1.054 1.451-1.923 1.451z" fill="#3762cc"/></g><g><path d="m151.582 119.825c-.622 0-1.235-.29-1.626-.833l-10.259-14.287c-.645-.897-.439-2.147.458-2.791.895-.644 2.146-.44 2.791.458l10.259 14.287c.645.897.439 2.147-.458 2.791-.353.253-.761.375-1.165.375z" fill="#3762cc"/></g><g><path d="m104.425 119.826c-.024 0-.047 0-.071-.001l-.785-.028c-.037-.001-.598-.021-18.274-.638-1.104-.039-1.967-.965-1.929-2.069.039-1.104.96-1.967 2.069-1.929 18.227.636 18.267.638 18.289.638l.77.027c1.104.039 1.967.965 1.929 2.069-.039 1.081-.926 1.931-1.998 1.931z" fill="#3762cc"/></g><g><path d="m109.01 135.825c-.87 0-1.67-.572-1.921-1.449l-4.587-15.999c-.169-.588-.059-1.221.297-1.717l10.255-14.288c.645-.897 1.894-1.103 2.791-.459s1.103 1.894.459 2.791l-9.69 13.501 4.32 15.068c.305 1.062-.309 2.169-1.371 2.474-.185.052-.371.078-.553.078z" fill="#3762cc"/></g><g><path d="m74.036 85.533c-.618 0-1.228-.286-1.62-.824-.649-.894-.451-2.145.442-2.794l13.879-10.083-5.617-17.289c-.341-1.051.234-2.179 1.284-2.521 1.052-.337 2.179.233 2.521 1.284l6.066 18.67c.268.824-.026 1.727-.727 2.236l-15.054 10.939c-.355.258-.767.382-1.174.382z" fill="#3762cc"/></g><g><path d="m106.445 80.199c-.204 0-.411-.031-.615-.097l-17.356-5.603c-1.051-.339-1.628-1.467-1.289-2.518s1.468-1.629 2.518-1.289l17.356 5.603c1.051.339 1.628 1.467 1.289 2.518-.273.847-1.058 1.386-1.903 1.386z" fill="#3762cc"/></g><g><path d="m128 47.313c-.413 0-.825-.127-1.176-.382l-17.507-12.72c-.894-.649-1.091-1.9-.442-2.794.651-.894 1.901-1.091 2.794-.442l16.331 11.866 16.293-11.838c.894-.648 2.145-.451 2.794.442.649.894.451 2.145-.442 2.794l-17.469 12.692c-.351.255-.763.382-1.176.382z" fill="#3762cc"/></g><g><path d="m128 64.538c-1.104 0-2-.896-2-2v-17.225c0-1.104.896-2 2-2s2 .896 2 2v17.225c0 1.104-.896 2-2 2z" fill="#3762cc"/></g><g><path d="m130.167 189.76 2.883 5.841c.352.713 1.032 1.208 1.82 1.322l6.446.937c1.982.288 2.774 2.724 1.339 4.122l-4.665 4.547c-.57.555-.829 1.355-.695 2.139l1.101 6.42c.339 1.974-1.734 3.48-3.506 2.548l-5.766-3.031c-.704-.37-1.545-.37-2.249 0l-5.766 3.031c-1.773.932-3.845-.573-3.506-2.548l1.101-6.42c.134-.784-.125-1.584-.695-2.139l-4.665-4.547c-1.434-1.398-.643-3.834 1.339-4.122l6.446-.937c.787-.114 1.468-.609 1.82-1.322l2.883-5.841c.887-1.796 3.449-1.796 4.335 0z" fill="#ffea92"/></g><g><path d="m168.112 187.064 2.067 4.187c.252.511.74.866 1.304.948l4.621.671c1.421.206 1.988 1.953.96 2.955l-3.344 3.259c-.408.398-.595.971-.498 1.533l.789 4.602c.243 1.415-1.243 2.494-2.514 1.826l-4.133-2.173c-.505-.265-1.108-.265-1.612 0l-4.133 2.173c-1.271.668-2.756-.411-2.514-1.826l.789-4.602c.096-.562-.09-1.135-.498-1.533l-3.344-3.259c-1.028-1.002-.461-2.748.96-2.955l4.621-.671c.564-.082 1.052-.436 1.304-.948l2.067-4.187c.636-1.287 2.472-1.287 3.108 0z" fill="#ffea92"/></g><g><path d="m91.061 187.064 2.067 4.187c.252.511.74.866 1.304.948l4.621.671c1.421.206 1.988 1.953.96 2.955l-3.344 3.259c-.408.398-.595.971-.498 1.533l.789 4.602c.243 1.415-1.243 2.494-2.514 1.826l-4.133-2.173c-.505-.265-1.108-.265-1.612 0l-4.133 2.173c-1.271.668-2.756-.411-2.514-1.826l.789-4.602c.096-.562-.09-1.135-.498-1.533l-3.344-3.259c-1.028-1.002-.461-2.748.96-2.955l4.621-.671c.564-.082 1.052-.436 1.304-.948l2.067-4.187c.636-1.287 2.472-1.287 3.108 0z" fill="#ffea92"/></g><g><path d="m232.518 177.709h-209.036c-2.955 0-5.351-2.396-5.351-5.351v-42.806c0-2.955 2.396-5.351 5.351-5.351h209.036c2.955 0 5.351 2.396 5.351 5.351v42.806c0 2.955-2.396 5.351-5.351 5.351z" fill="#6bdddd"/></g><g><path d="m232.518 179.708h-209.036c-4.053 0-7.351-3.297-7.351-7.351v-42.806c0-4.053 3.298-7.351 7.351-7.351h209.036c4.053 0 7.351 3.297 7.351 7.351v42.806c0 4.054-3.298 7.351-7.351 7.351zm-209.036-53.507c-1.848 0-3.351 1.503-3.351 3.351v42.806c0 1.848 1.503 3.351 3.351 3.351h209.036c1.848 0 3.351-1.503 3.351-3.351v-42.806c0-1.848-1.503-3.351-3.351-3.351z" fill="#3762cc"/></g><g><path d="m55.065 159.264h-11.173v-20.631c0-3.193-1.837-4.731-4.121-4.731-2.113 0-4.06 1.41-4.06 4.731v22.961c0 1.589.395 2.793 1.174 3.58.782.791 1.992 1.192 3.598 1.192h14.582c2.722 0 4.1-1.607 4.1-3.531 0-1.898-1.408-3.571-4.1-3.571z" fill="#4671c6"/></g><g><path d="m84.316 159.427h-13.004v-6.34h11.458c2.564 0 3.815-1.52 3.815-3.368 0-1.832-1.252-3.328-3.815-3.328h-11.458v-5.181h12.536c2.66 0 3.917-1.542 3.917-3.409 0-1.837-1.248-3.389-3.917-3.389h-15.945c-1.004 0-1.862.159-2.549.473-.785.358-1.369.937-1.734 1.718-.329.7-.489 1.544-.489 2.581v22.412c0 1.589.395 2.793 1.174 3.58.782.791 1.992 1.192 3.598 1.192h16.413c2.647 0 3.937-1.596 3.937-3.45 0-1.88-1.258-3.491-3.937-3.491z" fill="#4671c6"/></g><g><path d="m113.167 137.89c-.618-1.5-1.402-2.637-2.699-3.37-.723-.41-1.609-.618-2.632-.618-1.01 0-1.889.208-2.612.617-1.015.574-1.903 1.42-2.809 3.735l-8.404 21.353c-.603 1.492-.953 2.401-.953 3.471 0 3.409 4.791 5.178 6.745 2.587.819-1.086 1.501-3.101 2.736-6.417h10.64l1.172 3.079c.372.905.992 2.459 1.573 3.194 2.157 2.735 6.934 1.029 6.934-2.483 0-.826-.317-1.971-.994-3.595-8.917-22.022-8.697-21.553-8.697-21.553zm-8.265 14.683 2.902-8.09 2.955 8.09z" fill="#4671c6"/></g><g><path d="m152.868 148.824c-.667-.171-1.475-.258-2.401-.258h-6.854c-1.097 0-1.999.312-2.679.926-.704.634-1.076 1.479-1.076 2.442 0 1.515.757 2.278 1.392 2.651.751.442 1.764.657 3.096.657h3.608v3.12c-2.548 1.276-4.518 1.695-6.598 1.695-2.568 0-4.501-.802-5.907-2.452-1.429-1.676-2.154-4.159-2.154-7.38 0-1.498.193-2.875.573-4.096.666-2.144 1.93-3.884 4.013-4.798 2.045-.895 4.831-.761 6.207-.121 1.344.626 1.918 1.247 3.568 3.817 1.423 1.916 4.154 2.133 5.879.492.769-.733 1.175-1.672 1.175-2.717 0-1.537-.913-3.814-3.287-5.821-1.06-.896-2.44-1.641-4.103-2.218-1.652-.573-3.563-.863-5.679-.863-2.555 0-4.883.381-6.92 1.134-2.062.763-3.841 1.882-5.286 3.328-1.448 1.449-2.559 3.231-3.301 5.297-.731 2.033-1.1 4.296-1.1 6.727 0 2.477.382 4.759 1.135 6.78.761 2.047 1.873 3.817 3.303 5.26 1.431 1.447 3.183 2.564 5.207 3.321 1.997.747 4.23 1.126 6.638 1.126 2.049 0 3.976-.238 5.728-.708 1.74-.467 3.569-1.216 5.44-2.229 1.925-1.046 2.579-2.021 2.865-2.894.356-1.082.278-1.734.278-7.869 0-1.265-.239-2.223-.732-2.931-.511-.728-1.193-1.205-2.028-1.418z" fill="#4671c6"/></g><g><path d="m184.517 133.902c-2.267 0-4.06 1.514-4.06 4.731v14.786c0 5.058-1.787 6.515-5.397 6.515-2.317 0-4.217-.58-4.954-2.797-.334-1.003-.504-2.296-.504-3.841v-14.663c0-3.186-1.792-4.731-4.121-4.731-2.143 0-4.06 1.441-4.06 4.731v14.338c0 3.812.635 7.858 3.346 10.552 2.73 2.71 6.886 3.352 10.72 3.352 3.595 0 6.911-.728 9.558-3.178 2.106-1.971 3.593-4.544 3.593-10.726v-14.338c.001-3.193-1.837-4.731-4.121-4.731z" fill="#4671c6"/></g><g><path d="m216.351 159.427h-13.004v-6.34h11.458c2.584 0 3.816-1.542 3.816-3.368 0-1.838-1.259-3.328-3.816-3.328h-11.458v-5.181h12.536c2.732 0 3.917-1.614 3.917-3.409 0-1.743-1.153-3.389-3.917-3.389h-15.945c-1.019 0-1.853.155-2.55.473-.784.358-1.367.936-1.733 1.718-.329.699-.489 1.543-.489 2.581v22.412c0 1.589.395 2.793 1.173 3.58.782.791 1.993 1.192 3.599 1.192h16.412c2.627 0 3.938-1.578 3.938-3.45.001-1.883-1.261-3.491-3.937-3.491z" fill="#4671c6"/></g><g><path d="m136.019 219.918c-.702 0-1.408-.169-2.06-.512l-5.766-3.031c-.121-.063-.267-.064-.388 0l-5.766 3.031c-1.498.79-3.281.66-4.651-.336s-2.043-2.651-1.757-4.32l1.101-6.419c.023-.135-.021-.273-.12-.369l-4.665-4.547c-1.212-1.182-1.641-2.917-1.118-4.527.523-1.611 1.89-2.763 3.565-3.006l6.446-.937c.136-.02.253-.105.314-.229l2.883-5.841c.75-1.519 2.267-2.461 3.96-2.461s3.211.943 3.96 2.461l2.883 5.841c.061.124.178.208.313.228l6.447.937c1.676.243 3.042 1.395 3.565 3.006.523 1.61.095 3.345-1.118 4.527l-4.665 4.547c-.099.096-.143.234-.12.37l1.101 6.419c.287 1.669-.387 3.324-1.757 4.32-.769.563-1.675.848-2.587.848zm-8.019-7.591c.706 0 1.412.169 2.055.507l5.766 3.032c.152.079.3.069.439-.032s.195-.238.166-.408l-1.101-6.42c-.246-1.434.229-2.895 1.271-3.91l4.664-4.546c.123-.12.158-.264.105-.427-.053-.164-.166-.259-.336-.284l-6.446-.937c-1.439-.208-2.682-1.112-3.326-2.416l-2.883-5.841c-.152-.309-.595-.309-.747 0l-2.883 5.841c-.644 1.304-1.887 2.208-3.326 2.417l-6.446.936c-.17.025-.283.12-.336.284s-.018.307.105.427l4.665 4.547c1.041 1.014 1.516 2.476 1.271 3.909l-1.101 6.42c-.029.17.027.307.166.408s.287.11.439.032l5.766-3.031c.641-.338 1.347-.508 2.053-.508z" fill="#3762cc"/></g><g><path d="m160.809 209.25c-.771 0-1.536-.241-2.19-.717-1.158-.841-1.728-2.24-1.485-3.65l.766-4.464-3.243-3.161c-1.025-.999-1.387-2.465-.945-3.826s1.597-2.334 3.013-2.54l4.481-.651 2.005-4.062c.633-1.283 1.915-2.08 3.346-2.081 1.431 0 2.713.797 3.347 2.081l2.004 4.062 4.481.651c1.417.206 2.571 1.179 3.013 2.54s.081 2.827-.944 3.826l-3.243 3.161.766 4.463c.242 1.411-.327 2.81-1.485 3.651-1.157.841-2.664.95-3.931.284l-4.008-2.107-4.009 2.107c-.549.29-1.146.433-1.739.433zm-2.972-14.478 2.956 2.881c.879.857 1.281 2.092 1.073 3.303l-.698 4.069 3.653-1.921c1.088-.571 2.387-.571 3.474 0l3.653 1.921-.698-4.068c-.208-1.212.194-2.447 1.075-3.305l2.955-2.88-4.084-.594c-1.216-.176-2.267-.939-2.811-2.041l-1.827-3.702-1.827 3.701c-.544 1.102-1.594 1.865-2.81 2.042zm14.135-4.405h.01zm-5.654-2.417s.001 0 0 0z" fill="#3762cc"/></g><g><path d="m83.758 209.25c-.771 0-1.536-.241-2.19-.717-1.158-.841-1.728-2.24-1.485-3.65l.766-4.464-3.243-3.161c-1.025-.999-1.387-2.465-.945-3.826s1.597-2.334 3.013-2.54l4.482-.651 2.004-4.062c.634-1.283 1.916-2.081 3.347-2.081 1.431 0 2.713.798 3.346 2.081l2.005 4.061 4.481.651c1.417.206 2.571 1.179 3.013 2.54s.08 2.827-.945 3.826l-3.243 3.161.766 4.463c.242 1.411-.327 2.81-1.485 3.651s-2.664.95-3.931.283l-4.008-2.107-4.009 2.107c-.549.292-1.145.435-1.739.435zm5.749-6.574c.596 0 1.192.143 1.736.428l3.654 1.921-.698-4.068c-.208-1.21.193-2.446 1.073-3.304l2.956-2.881-4.084-.594c-1.216-.177-2.266-.94-2.81-2.041l-1.827-3.702-1.827 3.701c-.544 1.102-1.595 1.865-2.811 2.042l-4.084.594 2.956 2.881c.879.856 1.281 2.091 1.074 3.303l-.698 4.069 3.653-1.921c.544-.286 1.141-.428 1.737-.428zm9.258-7.826h.01z" fill="#3762cc"/></g></g></svg>